<svg width="18" height="19" viewBox="0 0 18 19" fill="none" xmlns="http://www.w3.org/2000/svg">
<path d="M17.4727 13.5266C17.7539 13.6672 17.9648 13.9836 17.9648 14.3351C17.9648 14.3703 17.9648 14.4406 17.9648 14.5109L17.1211 18.1672C17.0156 18.5539 16.6992 18.8 16.3125 18.8C7.27734 18.8 0 11.5226 0 2.48749C0 2.10077 0.246094 1.78436 0.632812 1.67889L4.28906 0.835144C4.35938 0.835144 4.42969 0.799988 4.46484 0.799988C4.81641 0.799988 5.13281 1.01093 5.27344 1.32733L6.96094 5.26483C6.99609 5.3703 7.03125 5.47577 7.03125 5.58124C7.03125 5.86249 6.89062 6.10858 6.71484 6.24921L4.57031 8.00702C5.87109 10.7492 8.05078 12.9289 10.793 14.2297L12.5508 12.0851C12.6914 11.9094 12.9375 11.7687 13.1836 11.7687C13.3242 11.7687 13.4297 11.8039 13.5352 11.8391L17.4727 13.5266Z" fill="#322922"/>
</svg>
