<svg width="16" height="19" viewBox="0 0 16 19" fill="none" xmlns="http://www.w3.org/2000/svg">
<path d="M13.4844 4.2453C14.9609 5.72186 15.875 7.65546 15.875 9.76483C15.875 14.0539 12.2891 17.5695 7.96484 17.5695C6.66406 17.5695 5.39844 17.218 4.23828 16.6203L0.125 17.675L1.21484 13.632C0.546875 12.4719 0.160156 11.1359 0.160156 9.72968C0.160156 5.44061 3.67578 1.92499 7.96484 1.92499C10.0742 1.92499 12.043 2.76874 13.4844 4.2453ZM7.96484 16.2336C11.5508 16.2336 14.5391 13.3156 14.5391 9.76483C14.5391 8.00702 13.8008 6.38983 12.5703 5.15936C11.3398 3.92889 9.72266 3.26093 8 3.26093C4.41406 3.26093 1.49609 6.17889 1.49609 9.72968C1.49609 10.9601 1.84766 12.1555 2.48047 13.2101L2.65625 13.4562L1.98828 15.8469L4.44922 15.1789L4.66016 15.3195C5.67969 15.9172 6.80469 16.2336 7.96484 16.2336ZM11.5508 11.382C11.7266 11.4875 11.8672 11.5226 11.9023 11.6281C11.9727 11.6984 11.9727 12.0851 11.7969 12.5422C11.6211 12.9992 10.8477 13.4211 10.4961 13.4562C9.86328 13.5617 9.37109 13.5266 8.14062 12.9641C6.17188 12.1203 4.90625 10.1516 4.80078 10.0461C4.69531 9.90546 4.02734 8.99139 4.02734 8.00702C4.02734 7.0578 4.51953 6.60077 4.69531 6.38983C4.87109 6.17889 5.08203 6.14374 5.22266 6.14374C5.32812 6.14374 5.46875 6.14374 5.57422 6.14374C5.71484 6.14374 5.85547 6.10858 6.03125 6.4953C6.17188 6.88202 6.59375 7.83124 6.62891 7.93671C6.66406 8.04218 6.69922 8.14764 6.62891 8.28827C6.27734 9.02655 5.85547 8.99139 6.06641 9.34296C6.83984 10.6437 7.57812 11.1008 8.73828 11.6633C8.91406 11.7687 9.01953 11.7336 9.16016 11.6281C9.26562 11.4875 9.65234 11.0305 9.75781 10.8547C9.89844 10.6437 10.0391 10.6789 10.2148 10.7492C10.3906 10.8195 11.3398 11.2766 11.5508 11.382Z" fill="white"/>
</svg>
