<svg width="80" height="81" viewBox="0 0 80 81" fill="none" xmlns="http://www.w3.org/2000/svg">
<rect x="10" y="10.77" width="60" height="60" rx="30" fill="#25D366"/>
<path d="M49.1456 31.2622C51.6066 33.7231 53.13 36.9458 53.13 40.4614C53.13 47.6099 47.1534 53.4692 39.9464 53.4692C37.7784 53.4692 35.6691 52.8833 33.7355 51.8872L26.88 53.645L28.6964 46.9067C27.5831 44.9731 26.9386 42.7466 26.9386 40.4028C26.9386 33.2544 32.798 27.395 39.9464 27.395C43.462 27.395 46.7433 28.8013 49.1456 31.2622ZM39.9464 51.2427C45.923 51.2427 50.9034 46.3794 50.9034 40.4614C50.9034 37.5317 49.673 34.8364 47.6222 32.7856C45.5714 30.7349 42.8761 29.6216 40.005 29.6216C34.0284 29.6216 29.1652 34.4849 29.1652 40.4028C29.1652 42.4536 29.7511 44.4458 30.8058 46.2036L31.0988 46.6138L29.9855 50.5981L34.087 49.4849L34.4386 49.7192C36.1378 50.7153 38.0128 51.2427 39.9464 51.2427ZM45.923 43.1567C46.2159 43.3325 46.4503 43.3911 46.5089 43.5669C46.6261 43.6841 46.6261 44.3286 46.3331 45.0903C46.0402 45.8521 44.7511 46.5552 44.1652 46.6138C43.1105 46.7896 42.2902 46.731 40.2394 45.7935C36.9581 44.3872 34.8488 41.106 34.673 40.9302C34.4972 40.6958 33.3839 39.1724 33.3839 37.5317C33.3839 35.9497 34.2042 35.188 34.4972 34.8364C34.7902 34.4849 35.1417 34.4263 35.3761 34.4263C35.5519 34.4263 35.7863 34.4263 35.962 34.4263C36.1964 34.4263 36.4308 34.3677 36.7238 35.0122C36.9581 35.6567 37.6613 37.2388 37.7198 37.4146C37.7784 37.5903 37.837 37.7661 37.7198 38.0005C37.1339 39.231 36.4308 39.1724 36.7823 39.7583C38.0714 41.9263 39.3019 42.688 41.2355 43.6255C41.5284 43.8013 41.7042 43.7427 41.9386 43.5669C42.1144 43.3325 42.7589 42.5708 42.9347 42.2778C43.1691 41.9263 43.4034 41.9849 43.6964 42.1021C43.9894 42.2192 45.5714 42.981 45.923 43.1567Z" fill="white"/>
</svg>
