<svg width="22" height="18" viewBox="0 0 22 18" fill="none" xmlns="http://www.w3.org/2000/svg">
<path d="M16.7344 8.67499C16.7344 13.2238 13.0156 16.9094 8.5 16.9094C3.95117 16.9094 0.265625 13.2238 0.265625 8.67499C0.265625 4.15936 3.95117 0.440613 8.5 0.440613C13.0156 0.440613 16.7344 4.15936 16.7344 8.67499ZM7.53711 13.0578L13.6465 6.94843C13.8457 6.74921 13.8457 6.38397 13.6465 6.18475L12.8828 5.45428C12.6836 5.22186 12.3516 5.22186 12.1523 5.45428L7.17188 10.4348L4.81445 8.11053C4.61523 7.87811 4.2832 7.87811 4.08398 8.11053L3.32031 8.841C3.12109 9.04022 3.12109 9.40546 3.32031 9.60468L6.77344 13.0578C6.97266 13.257 7.33789 13.257 7.53711 13.0578Z" fill="#B79C4D"/>
</svg>
