<svg width="15" height="11" viewBox="0 0 15 11" fill="none" xmlns="http://www.w3.org/2000/svg">
<path d="M14.7065 3.92261C14.8159 3.84058 14.98 3.92261 14.98 4.05933V9.63745C14.98 10.3757 14.3784 10.95 13.6675 10.95H2.29248C1.5542 10.95 0.97998 10.3757 0.97998 9.63745V4.05933C0.97998 3.92261 1.1167 3.84058 1.22607 3.92261C1.85498 4.41479 2.64795 5.01636 5.43701 7.03979C6.01123 7.44995 6.99561 8.35229 7.97998 8.35229C8.93701 8.35229 9.94873 7.44995 10.4956 7.03979C13.2847 5.01636 14.0776 4.41479 14.7065 3.92261ZM7.97998 7.44995C7.32373 7.47729 6.42139 6.65698 5.95654 6.32886C2.31982 3.70386 2.04639 3.45776 1.22607 2.80151C1.06201 2.69214 0.97998 2.50073 0.97998 2.28198V1.76245C0.97998 1.05151 1.5542 0.449951 2.29248 0.449951H13.6675C14.3784 0.449951 14.98 1.05151 14.98 1.76245V2.28198C14.98 2.50073 14.8706 2.69214 14.7065 2.80151C13.8862 3.45776 13.6128 3.70386 9.97607 6.32886C9.51123 6.65698 8.60889 7.47729 7.97998 7.44995Z" fill="#322922"/>
</svg>
