<svg width="34" height="35" viewBox="0 0 34 35" fill="none" xmlns="http://www.w3.org/2000/svg">
<rect y="0.77002" width="34" height="34" rx="17" fill="#B69B4C"/>
<path d="M17 14.0767C19.0918 14.0767 20.8184 15.8032 20.8184 17.895C20.8184 20.02 19.0918 21.7134 17 21.7134C14.875 21.7134 13.1816 20.02 13.1816 17.895C13.1816 15.8032 14.875 14.0767 17 14.0767ZM17 20.3853C18.3613 20.3853 19.457 19.2896 19.457 17.895C19.457 16.5337 18.3613 15.438 17 15.438C15.6055 15.438 14.5098 16.5337 14.5098 17.895C14.5098 19.2896 15.6387 20.3853 17 20.3853ZM21.8477 13.9438C21.8477 14.4419 21.4492 14.8403 20.9512 14.8403C20.4531 14.8403 20.0547 14.4419 20.0547 13.9438C20.0547 13.4458 20.4531 13.0474 20.9512 13.0474C21.4492 13.0474 21.8477 13.4458 21.8477 13.9438ZM24.3711 14.8403C24.4375 16.0688 24.4375 19.7544 24.3711 20.9829C24.3047 22.1782 24.0391 23.2075 23.1758 24.104C22.3125 24.9673 21.25 25.2329 20.0547 25.2993C18.8262 25.3657 15.1406 25.3657 13.9121 25.2993C12.7168 25.2329 11.6875 24.9673 10.791 24.104C9.92773 23.2075 9.66211 22.1782 9.5957 20.9829C9.5293 19.7544 9.5293 16.0688 9.5957 14.8403C9.66211 13.645 9.92773 12.5825 10.791 11.7192C11.6875 10.856 12.7168 10.5903 13.9121 10.5239C15.1406 10.4575 18.8262 10.4575 20.0547 10.5239C21.25 10.5903 22.3125 10.856 23.1758 11.7192C24.0391 12.5825 24.3047 13.645 24.3711 14.8403ZM22.7773 22.2778C23.1758 21.3149 23.0762 18.9907 23.0762 17.895C23.0762 16.8325 23.1758 14.5083 22.7773 13.5122C22.5117 12.8813 22.0137 12.3501 21.3828 12.1177C20.3867 11.7192 18.0625 11.8188 17 11.8188C15.9043 11.8188 13.5801 11.7192 12.6172 12.1177C11.9531 12.3833 11.4551 12.8813 11.1895 13.5122C10.791 14.5083 10.8906 16.8325 10.8906 17.895C10.8906 18.9907 10.791 21.3149 11.1895 22.2778C11.4551 22.9419 11.9531 23.4399 12.6172 23.7056C13.5801 24.104 15.9043 24.0044 17 24.0044C18.0625 24.0044 20.3867 24.104 21.3828 23.7056C22.0137 23.4399 22.5449 22.9419 22.7773 22.2778Z" fill="#322922"/>
</svg>
