<svg width="15" height="15" viewBox="0 0 15 15" fill="none" xmlns="http://www.w3.org/2000/svg">
<path d="M14.5698 10.7983C14.7886 10.9077 14.9526 11.1538 14.9526 11.4272C14.9526 11.4546 14.9526 11.5093 14.9526 11.564L14.2964 14.4077C14.2144 14.7085 13.9683 14.8999 13.6675 14.8999C6.64014 14.8999 0.97998 9.23975 0.97998 2.2124C0.97998 1.91162 1.17139 1.66553 1.47217 1.5835L4.31592 0.927246C4.37061 0.927246 4.42529 0.899902 4.45264 0.899902C4.72607 0.899902 4.97217 1.06396 5.08154 1.31006L6.39404 4.37256C6.42139 4.45459 6.44873 4.53662 6.44873 4.61865C6.44873 4.8374 6.33936 5.02881 6.20264 5.13818L4.53467 6.50537C5.54639 8.63818 7.2417 10.3335 9.37451 11.3452L10.7417 9.67725C10.8511 9.54053 11.0425 9.43115 11.2339 9.43115C11.3433 9.43115 11.4253 9.4585 11.5073 9.48584L14.5698 10.7983Z" fill="#322922"/>
</svg>
